# xmcd
#
# Track frame offsets:
#	150
#	13187
#	27937
#	45090
#	62202
#	79530
#	94029
#	107985
#	123014
#	135911
#	154214
#	167320
#	181548
#	194947
#	206458
#	221083
#
# Disc length: 3123 seconds
#
# Revision: 0
# Processed by: cddbd v1.5.2PL0 Copyright (c) Steve Scherf et al.
# Submitted via: dBpowerAMP V4.0
#
DISCID=ca0c3110
DTITLE=George Hamilton 1V - Songs For A Winter's Night
DYEAR=1982
DGENRE=Country
TTITLE0=Song For A Winter's Night
TTITLE1=Mull Of Kintyre
TTITLE2=When We Are Gone (I Will Love You)
TTITLE3=When I Dream
TTITLE4=I Believe In You
TTITLE5=Castles In The Air
TTITLE6=Lucille
TTITLE7=A Bunch Of Thyme
TTITLE8=Me And The Elephant
TTITLE9=England
TTITLE10=Only Love
TTITLE11=The Way Old Friends Do
TTITLE12=Waiting For The Sun To Shine
TTITLE13=Teach Your Children
TTITLE14=Four Strong Winds
TTITLE15=Blue Eyes Crying In The Rain
EXTD=
EXTT0=
EXTT1=
EXTT2=
EXTT3=
EXTT4=
EXTT5=
EXTT6=
EXTT7=
EXTT8=
EXTT9=
EXTT10=
EXTT11=
EXTT12=
EXTT13=
EXTT14=
EXTT15=
PLAYORDER=
